<svg width="114" height="47" viewBox="0 0 114 47" fill="none" xmlns="http://www.w3.org/2000/svg">
<path d="M17.8977 23.4367L13.679 23.8969C13.5597 23.4708 13.3509 23.0702 13.0526 22.6952C12.7628 22.3202 12.3707 22.0176 11.8764 21.7875C11.3821 21.5574 10.777 21.4423 10.0611 21.4423C9.09801 21.4423 8.28835 21.6512 7.6321 22.0688C6.98438 22.4864 6.66477 23.0276 6.6733 23.6923C6.66477 24.2634 6.87358 24.7279 7.29972 25.0858C7.73438 25.4438 8.45028 25.7378 9.44744 25.9679L12.7969 26.6838C14.6548 27.0844 16.0355 27.7193 16.9389 28.5887C17.8509 29.458 18.3111 30.5958 18.3196 32.002C18.3111 33.2378 17.9489 34.3287 17.233 35.2747C16.5256 36.2122 15.5412 36.9452 14.2798 37.4736C13.0185 38.002 11.5696 38.2662 9.93324 38.2662C7.52983 38.2662 5.59517 37.7634 4.12926 36.7577C2.66335 35.7435 1.78977 34.333 1.50852 32.5262L6.02131 32.0915C6.22585 32.9779 6.66051 33.6469 7.32528 34.0986C7.99006 34.5503 8.85511 34.7762 9.92045 34.7762C11.0199 34.7762 11.902 34.5503 12.5668 34.0986C13.2401 33.6469 13.5767 33.0887 13.5767 32.4239C13.5767 31.8614 13.3594 31.3969 12.9247 31.0304C12.4986 30.6639 11.8338 30.3827 10.9304 30.1867L7.58097 29.4835C5.69744 29.0915 4.30398 28.431 3.40057 27.502C2.49716 26.5645 2.04972 25.3798 2.05824 23.948C2.04972 22.7378 2.37784 21.6895 3.04261 20.8031C3.71591 19.9083 4.64915 19.2179 5.84233 18.7321C7.04403 18.2378 8.42898 17.9906 9.99716 17.9906C12.2983 17.9906 14.1094 18.4807 15.4304 19.4608C16.7599 20.4409 17.5824 21.7662 17.8977 23.4367ZM26.7635 26.377V37.8827H22.1357V11.7009H26.6612V21.583H26.8913C27.3516 20.475 28.0632 19.6014 29.0263 18.9622C29.9979 18.3145 31.2337 17.9906 32.7337 17.9906C34.0973 17.9906 35.2862 18.2762 36.3004 18.8472C37.3146 19.4182 38.0987 20.2534 38.6527 21.3529C39.2152 22.4523 39.4965 23.7946 39.4965 25.3798V37.8827H34.8686V26.0958C34.8686 24.7747 34.5277 23.7477 33.8459 23.0148C33.1726 22.2733 32.2266 21.9026 31.0078 21.9026C30.1896 21.9026 29.4567 22.0816 28.8089 22.4395C28.1697 22.7889 27.6669 23.296 27.3004 23.9608C26.9425 24.6256 26.7635 25.431 26.7635 26.377ZM52.7791 38.2662C50.8615 38.2662 49.1996 37.8443 47.7933 37.0006C46.3871 36.1568 45.2962 34.9764 44.5206 33.4594C43.7536 31.9423 43.37 30.1696 43.37 28.1412C43.37 26.1128 43.7536 24.3358 44.5206 22.8102C45.2962 21.2847 46.3871 20.1 47.7933 19.2563C49.1996 18.4125 50.8615 17.9906 52.7791 17.9906C54.6967 17.9906 56.3587 18.4125 57.7649 19.2563C59.1712 20.1 60.2578 21.2847 61.0249 22.8102C61.8004 24.3358 62.1882 26.1128 62.1882 28.1412C62.1882 30.1696 61.8004 31.9423 61.0249 33.4594C60.2578 34.9764 59.1712 36.1568 57.7649 37.0006C56.3587 37.8443 54.6967 38.2662 52.7791 38.2662ZM52.8047 34.5588C53.8445 34.5588 54.7138 34.2733 55.4126 33.7023C56.1115 33.1227 56.6314 32.3472 56.9723 31.3756C57.3217 30.404 57.4964 29.3216 57.4964 28.1284C57.4964 26.9267 57.3217 25.8401 56.9723 24.8685C56.6314 23.8884 56.1115 23.1085 55.4126 22.529C54.7138 21.9495 53.8445 21.6597 52.8047 21.6597C51.7393 21.6597 50.853 21.9495 50.1456 22.529C49.4467 23.1085 48.9226 23.8884 48.5732 24.8685C48.2322 25.8401 48.0618 26.9267 48.0618 28.1284C48.0618 29.3216 48.2322 30.404 48.5732 31.3756C48.9226 32.3472 49.4467 33.1227 50.1456 33.7023C50.853 34.2733 51.7393 34.5588 52.8047 34.5588ZM66.1161 45.2463V18.2463H70.6673V21.4935H70.9357C71.1744 21.0162 71.511 20.5091 71.9457 19.9722C72.3803 19.4267 72.9684 18.9622 73.7099 18.5787C74.4513 18.1867 75.3974 17.9906 76.5479 17.9906C78.065 17.9906 79.4329 18.3784 80.6516 19.154C81.8789 19.921 82.8505 21.0588 83.5664 22.5673C84.2908 24.0673 84.6531 25.9083 84.6531 28.0901C84.6531 30.2463 84.2994 32.0787 83.592 33.5872C82.8846 35.0958 81.9215 36.2463 80.7028 37.0389C79.484 37.8316 78.1033 38.2279 76.5607 38.2279C75.4357 38.2279 74.5025 38.0404 73.761 37.6654C73.0195 37.2904 72.4229 36.8387 71.9712 36.3102C71.5281 35.7733 71.1829 35.2662 70.9357 34.7889H70.744V45.2463H66.1161ZM70.6545 28.0645C70.6545 29.3344 70.8335 30.4466 71.1914 31.4012C71.5579 32.3557 72.082 33.1014 72.7639 33.6384C73.4542 34.1668 74.2894 34.431 75.2695 34.431C76.2923 34.431 77.1488 34.1583 77.8391 33.6128C78.5295 33.0588 79.0494 32.3046 79.3988 31.35C79.7567 30.387 79.9357 29.2918 79.9357 28.0645C79.9357 26.8458 79.761 25.7634 79.4116 24.8173C79.0621 23.8713 78.5423 23.1298 77.8519 22.5929C77.1616 22.056 76.3008 21.7875 75.2695 21.7875C74.2809 21.7875 73.4414 22.0475 72.7511 22.5673C72.0607 23.0872 71.5366 23.8159 71.1786 24.7534C70.8292 25.6909 70.6545 26.7946 70.6545 28.0645Z" fill="black"/>
<path d="M93.2859 11.5455V29H90.1239V11.5455H93.2859ZM103.213 23.1364H106.076L107.772 25.3352L108.983 26.767L111.889 30.5H108.821L106.843 27.9943L106 26.8011L103.213 23.1364ZM112.306 20.2727C112.306 22.1534 111.954 23.7642 111.25 25.1051C110.551 26.4403 109.596 27.4631 108.386 28.1733C107.181 28.8835 105.815 29.2386 104.287 29.2386C102.758 29.2386 101.389 28.8835 100.179 28.1733C98.9741 27.4574 98.0195 26.4318 97.315 25.0966C96.6161 23.7557 96.2667 22.1477 96.2667 20.2727C96.2667 18.392 96.6161 16.7841 97.315 15.4489C98.0195 14.108 98.9741 13.0824 100.179 12.3722C101.389 11.6619 102.758 11.3068 104.287 11.3068C105.815 11.3068 107.181 11.6619 108.386 12.3722C109.596 13.0824 110.551 14.108 111.25 15.4489C111.954 16.7841 112.306 18.392 112.306 20.2727ZM109.127 20.2727C109.127 18.9489 108.92 17.8324 108.505 16.9233C108.096 16.0085 107.528 15.3182 106.801 14.8523C106.074 14.3807 105.235 14.1449 104.287 14.1449C103.338 14.1449 102.5 14.3807 101.772 14.8523C101.045 15.3182 100.474 16.0085 100.059 16.9233C99.6502 17.8324 99.4457 18.9489 99.4457 20.2727C99.4457 21.5966 99.6502 22.7159 100.059 23.6307C100.474 24.5398 101.045 25.2301 101.772 25.7017C102.5 26.1676 103.338 26.4006 104.287 26.4006C105.235 26.4006 106.074 26.1676 106.801 25.7017C107.528 25.2301 108.096 24.5398 108.505 23.6307C108.92 22.7159 109.127 21.5966 109.127 20.2727Z" fill="#FFCA3A"/>
</svg>
